<svg width="25" height="24" viewBox="0 0 25 24" fill="none" xmlns="http://www.w3.org/2000/svg">
<path d="M24.3125 12C24.3125 5.37258 18.9399 0 12.3125 0C5.68508 0 0.3125 5.37258 0.3125 12C0.3125 17.9895 4.7007 22.954 10.4375 23.8542V15.4688H7.39062V12H10.4375V9.35625C10.4375 6.34875 12.2291 4.6875 14.9701 4.6875C16.2826 4.6875 17.6562 4.92188 17.6562 4.92188V7.875H16.1431C14.6525 7.875 14.1875 8.80008 14.1875 9.75V12H17.5156L16.9836 15.4688H14.1875V23.8542C19.9243 22.954 24.3125 17.9895 24.3125 12Z" fill="#1877F2"/>
<path d="M16.9836 15.4688L17.5156 12H14.1875V9.75C14.1875 8.80102 14.6525 7.875 16.1431 7.875H17.6562V4.92188C17.6562 4.92188 16.283 4.6875 14.9701 4.6875C12.2291 4.6875 10.4375 6.34875 10.4375 9.35625V12H7.39062V15.4688H10.4375V23.8542C11.6799 24.0486 12.9451 24.0486 14.1875 23.8542V15.4688H16.9836Z" fill="white"/>
</svg>
