<svg width="25" height="24" viewBox="0 0 25 24" fill="none" xmlns="http://www.w3.org/2000/svg">
<path fill-rule="evenodd" clip-rule="evenodd" d="M20.7125 3.45C18.4625 1.2 15.4625 0 12.3125 0C5.7125 0 0.3125 5.4 0.3125 12C0.3125 14.1 0.912509 16.2 1.96251 18L0.3125 24L6.61252 22.35C8.41252 23.25 10.3625 23.85 12.3125 23.85C18.9125 23.85 24.3125 18.45 24.3125 11.85C24.3125 8.7 22.9625 5.7 20.7125 3.45ZM12.3125 21.9C10.5125 21.9 8.71251 21.45 7.21251 20.55L6.91249 20.4L3.16249 21.45L4.21251 17.85L3.91249 17.4C2.86249 15.75 2.41249 13.95 2.41249 12.15C2.41249 6.75 6.9125 2.25 12.3125 2.25C15.0125 2.25 17.4125 3.3 19.3625 5.1C21.3125 7.05 22.2125 9.45 22.2125 12.15C22.2125 17.4 17.8625 21.9 12.3125 21.9ZM17.7125 14.4C17.4125 14.25 15.9125 13.5 15.6125 13.5C15.3125 13.35 15.1625 13.35 15.0125 13.65C14.8625 13.95 14.2625 14.55 14.1125 14.85C13.9625 15 13.8125 15 13.5125 15C13.2125 14.85 12.3125 14.55 11.1125 13.5C10.2125 12.75 9.61251 11.7 9.46251 11.4C9.31251 11.1 9.46252 10.95 9.61252 10.8C9.76252 10.65 9.9125 10.5 10.0625 10.35C10.2125 10.2 10.2125 10.05 10.3625 9.9C10.5125 9.75 10.3625 9.6 10.3625 9.45C10.3625 9.3 9.76251 7.8 9.46251 7.2C9.31251 6.75 9.01252 6.75 8.86252 6.75C8.71252 6.75 8.56248 6.75 8.26248 6.75C8.11248 6.75 7.81248 6.75 7.51248 7.05C7.21248 7.35 6.46251 8.1 6.46251 9.6C6.46251 11.1 7.51249 12.45 7.66249 12.75C7.81249 12.9 9.76248 16.05 12.7625 17.25C15.3125 18.3 15.7625 18 16.3625 18C16.9625 18 18.1625 17.25 18.3125 16.65C18.6125 15.9 18.6125 15.3 18.4625 15.3C18.3125 14.55 18.0125 14.55 17.7125 14.4Z" fill="#25D366"/>
</svg>
